<svg width="512" height="512" viewBox="0 0 512 512" fill="none" xmlns="http://www.w3.org/2000/svg">
<g clip-path="url(#clip0_19_237)">
<path fill-rule="evenodd" clip-rule="evenodd" d="M225.8 468.378L223.3 466.078L48.1 303.378C17.4 274.878 0 234.878 0 192.978V189.678C0 119.278 50 58.8783 119.2 45.6783C158.6 38.0783 198.9 47.1783 231 69.7783C240 76.1783 248.4 83.5783 256 92.0783C260.2 87.2783 264.7 82.8783 269.5 78.7783C273.2 75.5783 277 72.5783 281 69.7783C313.1 47.1783 353.4 38.0783 392.8 45.5783C462 58.7783 512 119.278 512 189.678V192.978C512 234.878 494.6 274.878 463.9 303.378L288.7 466.078L286.2 468.378C278 475.978 267.2 480.278 256 480.278C244.8 480.278 234 476.078 225.8 468.378ZM239.1 145.178C238.7 144.878 238.4 144.478 238.1 144.078L220.3 124.078L220.2 123.978C197.1 98.0783 162.2 86.2783 128.2 92.7783C81.6 101.678 48 142.278 48 189.678V192.978C48 221.478 59.9 248.778 80.8 268.178L256 430.878L431.2 268.178C452.1 248.778 464 221.478 464 192.978V189.678C464 142.378 430.4 101.678 383.9 92.7783C349.9 86.2783 314.9 98.1783 291.9 123.978C291.9 123.978 291.9 123.978 291.8 124.078C291.7 124.178 291.8 124.078 291.7 124.178L273.9 144.178C273.6 144.578 273.2 144.878 272.9 145.278C268.4 149.778 262.3 152.278 256 152.278C249.7 152.278 243.6 149.778 239.1 145.278V145.178Z" fill="url(#paint0_linear_19_237)"/>
</g>
<defs>
<linearGradient id="paint0_linear_19_237" x1="512" y1="43" x2="80.107" y2="548.694" gradientUnits="userSpaceOnUse">
<stop stop-color="#F64F59"/>
<stop offset="1" stop-color="#EA2088"/>
</linearGradient>
<clipPath id="clip0_19_237">
<rect width="512" height="512" fill="white"/>
</clipPath>
</defs>
</svg>
