<svg width="628" height="384" viewBox="0 0 628 384" fill="none" xmlns="http://www.w3.org/2000/svg">
<path d="M328.989 202.15L330.174 201.061L413.204 124.042C427.754 110.55 436 91.6151 436 71.7803V70.2182C436 36.892 412.304 8.29973 379.509 2.05108C360.836 -1.54663 341.737 2.76115 326.525 13.4596C322.259 16.4893 318.278 19.9923 314.677 24.016C312.686 21.7438 310.553 19.6609 308.279 17.72C306.525 16.2052 304.724 14.7851 302.829 13.4596C287.616 2.76115 268.517 -1.54663 249.844 2.00374C217.049 8.25239 193.353 36.892 193.353 70.2182V71.7803C193.353 91.6151 201.599 110.55 216.149 124.042L299.179 201.061L300.364 202.15C304.25 205.748 309.369 207.783 314.677 207.783C319.984 207.783 325.103 205.795 328.989 202.15ZM322.686 49.1527C322.875 49.0106 323.018 48.8213 323.16 48.6319L331.596 39.1643L331.643 39.1169C342.59 26.8563 359.13 21.2704 375.244 24.3474C397.328 28.5605 413.252 47.7798 413.252 70.2182V71.7803C413.252 85.2718 407.612 98.1951 397.707 107.379L314.677 184.398L231.646 107.379C221.741 98.1951 216.101 85.2718 216.101 71.7803V70.2182C216.101 47.8272 232.025 28.5605 254.062 24.3474C270.176 21.2704 286.763 26.9037 297.663 39.1169C297.663 39.1169 297.663 39.1169 297.71 39.1643C297.758 39.2116 297.71 39.1643 297.758 39.2116L306.193 48.6793C306.336 48.8686 306.525 49.0106 306.667 49.2C308.8 51.3302 311.691 52.5137 314.677 52.5137C317.662 52.5137 320.553 51.3302 322.686 49.2V49.1527Z" fill="url(#paint0_linear_42_194)"/>
<path d="M328.807 201.956L328.809 201.955L329.993 200.867L329.994 200.866L413.024 123.847L413.204 124.042L413.024 123.847C427.519 110.406 435.735 91.5414 435.735 71.7803V70.2182C435.735 37.0198 412.13 8.53668 379.459 2.31182L379.459 2.31171C360.858 -1.27212 341.832 3.01896 326.677 13.6767C322.428 16.6954 318.462 20.1851 314.874 24.1931L314.674 24.4164L314.477 24.1909C312.495 21.929 310.372 19.8551 308.106 17.922L308.105 17.9209C306.358 16.4112 304.564 14.9968 302.677 13.6771L302.676 13.6767C287.521 3.01896 268.495 -1.27226 249.894 2.2645C217.224 8.4893 193.619 37.0196 193.619 70.2182V71.7803C193.619 91.5414 201.834 110.406 216.329 123.847L216.159 124.031L216.329 123.847L299.359 200.866L299.36 200.867L300.544 201.955L300.545 201.955C304.382 205.508 309.436 207.518 314.677 207.518C319.918 207.518 324.971 205.555 328.807 201.956ZM322.42 49.0892V49.0199L322.527 48.9402C322.681 48.8247 322.801 48.6672 322.948 48.4726L322.954 48.4637L322.962 48.4554L331.397 38.9877L331.402 38.9819L331.408 38.9765L331.45 38.9345C342.46 26.6082 359.091 20.9927 375.293 24.0867C397.503 28.3236 413.517 47.6521 413.517 70.2182V71.7803C413.517 85.3457 407.847 98.3395 397.888 107.573L314.857 184.593L314.677 184.76L314.496 184.593L231.465 107.573C221.506 98.3395 215.836 85.3457 215.836 71.7803V70.2182C215.836 47.6997 231.85 28.3237 254.012 24.0867L254.057 24.3193L254.013 24.0867C270.215 20.9927 286.894 26.6556 297.856 38.9346L297.856 38.9351L297.898 38.9765L297.919 38.9972L297.921 39L297.922 39.0007L297.922 39.0008L297.922 39.0009L297.923 39.0014L297.924 39.003L297.925 39.0032L297.927 39.0052L297.945 39.0238L297.951 39.0293L297.956 39.035L306.392 48.5027L306.399 48.511L306.406 48.5199C306.464 48.597 306.533 48.6668 306.618 48.7518L306.623 48.7571C306.699 48.8328 306.788 48.9217 306.868 49.0248C308.949 51.0971 311.767 52.2482 314.677 52.2482C317.556 52.2482 320.346 51.1209 322.42 49.0892Z" stroke="#919191" stroke-opacity="0.2" stroke-width="0.530857"/>
<path d="M58.2031 277.658C67.9427 277.658 75.5208 280.184 80.9375 285.236C86.4062 290.236 89.1406 298.283 89.1406 309.377V365.783H70.7812V312.814C70.7812 306.096 69.401 301.07 66.6406 297.736C63.8802 294.351 59.6094 292.658 53.8281 292.658C45.4427 292.658 39.6094 295.236 36.3281 300.393C33.099 305.549 31.4844 313.023 31.4844 322.814V365.783H13.125V279.299H27.4219L30 291.018H31.0156C32.8906 287.997 35.2083 285.523 37.9688 283.596C40.7812 281.617 43.9062 280.132 47.3438 279.143C50.8333 278.153 54.4531 277.658 58.2031 277.658ZM149.297 277.658C157.005 277.658 163.62 279.247 169.141 282.424C174.661 285.601 178.906 290.106 181.875 295.939C184.844 301.773 186.328 308.752 186.328 316.877V326.721H128.594C128.802 335.106 131.042 341.564 135.312 346.096C139.635 350.627 145.677 352.893 153.438 352.893C158.958 352.893 163.906 352.372 168.281 351.33C172.708 350.236 177.266 348.648 181.953 346.564V361.486C177.63 363.518 173.229 365.002 168.75 365.939C164.271 366.877 158.906 367.346 152.656 367.346C144.167 367.346 136.693 365.705 130.234 362.424C123.828 359.09 118.802 354.143 115.156 347.58C111.562 341.018 109.766 332.867 109.766 323.127C109.766 313.439 111.406 305.21 114.688 298.439C117.969 291.669 122.578 286.512 128.516 282.971C134.453 279.429 141.38 277.658 149.297 277.658ZM149.297 291.486C143.516 291.486 138.828 293.361 135.234 297.111C131.693 300.861 129.609 306.356 128.984 313.596H168.359C168.307 309.273 167.578 305.445 166.172 302.111C164.818 298.778 162.734 296.174 159.922 294.299C157.161 292.424 153.62 291.486 149.297 291.486ZM236.094 367.346C225.781 367.346 217.5 363.596 211.25 356.096C205.052 348.544 201.953 337.424 201.953 322.736C201.953 307.893 205.104 296.669 211.406 289.064C217.76 281.46 226.12 277.658 236.484 277.658C240.859 277.658 244.688 278.257 247.969 279.455C251.25 280.601 254.062 282.163 256.406 284.143C258.802 286.122 260.833 288.335 262.5 290.783H263.359C263.099 289.169 262.786 286.851 262.422 283.83C262.109 280.757 261.953 277.919 261.953 275.314V244.221H280.391V365.783H266.016L262.734 353.986H261.953C260.391 356.486 258.411 358.752 256.016 360.783C253.672 362.762 250.859 364.351 247.578 365.549C244.349 366.747 240.521 367.346 236.094 367.346ZM241.25 352.424C249.115 352.424 254.661 350.158 257.891 345.627C261.12 341.096 262.786 334.299 262.891 325.236V322.814C262.891 313.127 261.328 305.705 258.203 300.549C255.078 295.34 249.375 292.736 241.094 292.736C234.479 292.736 229.427 295.419 225.938 300.783C222.5 306.096 220.781 313.518 220.781 323.049C220.781 332.58 222.5 339.872 225.938 344.924C229.427 349.924 234.531 352.424 241.25 352.424Z" fill="#595959"/>
<path d="M341.562 367.346C333.385 367.346 326.302 365.757 320.312 362.58C314.323 359.403 309.714 354.533 306.484 347.971C303.255 341.408 301.641 333.075 301.641 322.971C301.641 312.45 303.411 303.856 306.953 297.189C310.495 290.523 315.391 285.601 321.641 282.424C327.943 279.247 335.156 277.658 343.281 277.658C348.438 277.658 353.099 278.179 357.266 279.221C361.484 280.21 365.052 281.434 367.969 282.893L362.5 297.58C359.323 296.278 356.068 295.184 352.734 294.299C349.401 293.413 346.198 292.971 343.125 292.971C338.073 292.971 333.854 294.09 330.469 296.33C327.135 298.57 324.635 301.903 322.969 306.33C321.354 310.757 320.547 316.252 320.547 322.814C320.547 329.169 321.38 334.533 323.047 338.908C324.714 343.231 327.188 346.512 330.469 348.752C333.75 350.939 337.786 352.033 342.578 352.033C347.318 352.033 351.562 351.46 355.312 350.314C359.062 349.169 362.604 347.684 365.938 345.861V361.799C362.656 363.674 359.141 365.054 355.391 365.939C351.641 366.877 347.031 367.346 341.562 367.346ZM420.156 277.658C431.094 277.658 439.349 280.08 444.922 284.924C450.547 289.768 453.359 297.32 453.359 307.58V365.783H440.312L436.797 353.518H436.172C433.724 356.643 431.198 359.221 428.594 361.252C425.99 363.283 422.969 364.794 419.531 365.783C416.146 366.825 412.005 367.346 407.109 367.346C401.953 367.346 397.344 366.408 393.281 364.533C389.219 362.606 386.016 359.689 383.672 355.783C381.328 351.877 380.156 346.929 380.156 340.939C380.156 332.033 383.464 325.34 390.078 320.861C396.745 316.382 406.797 313.908 420.234 313.439L435.234 312.893V308.361C435.234 302.372 433.828 298.101 431.016 295.549C428.255 292.997 424.349 291.721 419.297 291.721C414.974 291.721 410.781 292.346 406.719 293.596C402.656 294.846 398.698 296.382 394.844 298.205L388.906 285.236C393.125 282.997 397.917 281.174 403.281 279.768C408.698 278.361 414.323 277.658 420.156 277.658ZM435.156 324.455L423.984 324.846C414.818 325.158 408.385 326.721 404.688 329.533C400.99 332.346 399.141 336.2 399.141 341.096C399.141 345.367 400.417 348.492 402.969 350.471C405.521 352.398 408.88 353.361 413.047 353.361C419.401 353.361 424.661 351.564 428.828 347.971C433.047 344.325 435.156 338.986 435.156 331.955V324.455ZM522.891 277.658C524.349 277.658 525.938 277.736 527.656 277.893C529.375 278.049 530.859 278.257 532.109 278.518L530.391 295.705C529.297 295.393 527.943 295.158 526.328 295.002C524.766 294.846 523.359 294.768 522.109 294.768C518.828 294.768 515.703 295.314 512.734 296.408C509.766 297.45 507.135 299.064 504.844 301.252C502.552 303.387 500.755 306.07 499.453 309.299C498.151 312.528 497.5 316.278 497.5 320.549V365.783H479.062V279.299H493.438L495.938 294.533H496.797C498.516 291.46 500.651 288.648 503.203 286.096C505.755 283.544 508.672 281.512 511.953 280.002C515.286 278.439 518.932 277.658 522.891 277.658ZM582.578 277.658C590.286 277.658 596.901 279.247 602.422 282.424C607.943 285.601 612.188 290.106 615.156 295.939C618.125 301.773 619.609 308.752 619.609 316.877V326.721H561.875C562.083 335.106 564.323 341.564 568.594 346.096C572.917 350.627 578.958 352.893 586.719 352.893C592.24 352.893 597.188 352.372 601.562 351.33C605.99 350.236 610.547 348.648 615.234 346.564V361.486C610.911 363.518 606.51 365.002 602.031 365.939C597.552 366.877 592.188 367.346 585.938 367.346C577.448 367.346 569.974 365.705 563.516 362.424C557.109 359.09 552.083 354.143 548.438 347.58C544.844 341.018 543.047 332.867 543.047 323.127C543.047 313.439 544.688 305.21 547.969 298.439C551.25 291.669 555.859 286.512 561.797 282.971C567.734 279.429 574.661 277.658 582.578 277.658ZM582.578 291.486C576.797 291.486 572.109 293.361 568.516 297.111C564.974 300.861 562.891 306.356 562.266 313.596H601.641C601.589 309.273 600.859 305.445 599.453 302.111C598.099 298.778 596.016 296.174 593.203 294.299C590.443 292.424 586.901 291.486 582.578 291.486Z" fill="url(#paint1_linear_42_194)"/>
<defs>
<linearGradient id="paint0_linear_42_194" x1="193.353" y1="0.783203" x2="397.768" y2="240.399" gradientUnits="userSpaceOnUse">
<stop stop-color="#F64F59"/>
<stop offset="1" stop-color="#EA2088"/>
</linearGradient>
<linearGradient id="paint1_linear_42_194" x1="628" y1="223.783" x2="551.441" y2="524.278" gradientUnits="userSpaceOnUse">
<stop stop-color="#F64F59"/>
<stop offset="1" stop-color="#EA2088"/>
</linearGradient>
</defs>
</svg>
