<svg width="2160" height="1320" viewBox="0 0 2160 1320" fill="none" xmlns="http://www.w3.org/2000/svg">
<path d="M1131.55 694.891L1135.63 691.147L1421.21 426.394C1471.26 380.016 1499.62 314.927 1499.62 246.745V241.375C1499.62 126.816 1418.12 28.5305 1305.32 7.05072C1241.09 -5.31641 1175.4 9.49158 1123.08 46.2675C1108.41 56.6821 1094.71 68.7237 1082.33 82.5551C1075.48 74.7444 1068.14 67.5845 1060.32 60.9126C1054.29 55.7055 1048.1 50.8239 1041.58 46.2675C989.252 9.49158 923.562 -5.31641 859.336 6.88799C746.538 28.3677 665.036 126.816 665.036 241.375V246.745C665.036 314.927 693.398 380.016 743.442 426.394L1029.02 691.147L1033.1 694.891C1046.46 707.259 1064.07 714.254 1082.33 714.254C1100.58 714.254 1118.19 707.42 1131.55 694.891ZM1109.88 168.963C1110.53 168.474 1111.02 167.823 1111.51 167.172L1140.52 134.627L1140.68 134.464C1178.34 92.3187 1235.22 73.1171 1290.65 83.6943C1366.61 98.1768 1421.38 164.243 1421.38 241.375V246.745C1421.38 293.122 1401.98 337.546 1367.91 369.115L1082.33 633.868L796.744 369.115C762.676 337.546 743.277 293.122 743.277 246.745V241.375C743.277 164.406 798.048 98.1768 873.844 83.6943C929.268 73.1171 986.319 92.4816 1023.81 134.464C1023.81 134.464 1023.81 134.464 1023.97 134.627C1024.14 134.79 1023.97 134.627 1024.14 134.79L1053.15 167.335C1053.64 167.986 1054.29 168.474 1054.78 169.125C1062.11 176.448 1072.06 180.516 1082.33 180.516C1092.6 180.516 1102.54 176.448 1109.88 169.125V168.963Z" fill="url(#paint0_linear_103_66)"/>
<path d="M1420.59 425.724L1135.01 690.477L1135.01 690.48L1130.94 694.22L1130.93 694.224C1117.73 706.595 1100.35 713.343 1082.33 713.343C1064.3 713.343 1046.92 706.434 1033.72 694.22H1033.72L1029.65 690.48L1029.64 690.477L744.061 425.724M1420.59 425.724L1421.21 426.394M1420.59 425.724C1470.45 379.52 1498.71 314.673 1498.71 246.745V241.375C1498.71 127.255 1417.52 29.3446 1305.15 7.94668C1241.17 -4.37273 1175.73 10.3775 1123.6 47.0135C1108.99 57.3902 1095.35 69.3861 1083.01 83.1636L1082.32 83.9312L1081.64 83.156C1074.82 75.3807 1067.52 68.2517 1059.73 61.6067L1059.72 61.6029C1053.72 56.4133 1047.54 51.5513 1041.05 47.0148L1041.05 47.0135C988.926 10.3775 923.486 -4.37359 859.508 7.78402C747.14 29.1818 665.951 127.255 665.951 241.375V246.745C665.951 314.673 694.206 379.52 744.061 425.724M744.061 425.724L743.477 426.356M1108.96 168.744V168.506L1109.33 168.232C1109.86 167.835 1110.27 167.293 1110.78 166.624L1110.8 166.594L1110.82 166.565L1139.84 134.02L1139.85 134L1139.87 133.982L1140.02 133.837C1177.89 91.4655 1235.09 72.1622 1290.82 82.7978C1367.21 97.3622 1422.29 163.804 1422.29 241.375V246.745C1422.29 293.376 1402.79 338.042 1368.53 369.782L1082.95 634.538L1082.33 635.112L1081.71 634.538L796.122 369.782C761.868 338.042 742.366 293.376 742.366 246.745V241.375C742.366 163.968 797.446 97.3625 873.672 82.7978L873.827 83.5974L873.675 82.7978C929.402 72.1622 986.769 91.6284 1024.47 133.837L1024.62 133.982L1024.69 134.053L1024.7 134.062L1024.7 134.065L1024.7 134.067L1024.71 134.073L1024.72 134.08L1024.78 134.144L1024.8 134.163L1024.82 134.183L1053.83 166.728L1053.86 166.756L1053.88 166.787C1054.08 167.052 1054.32 167.292 1054.61 167.584L1054.63 167.602C1054.89 167.863 1055.19 168.168 1055.47 168.523C1062.63 175.646 1072.32 179.603 1082.33 179.603C1092.23 179.603 1101.83 175.728 1108.96 168.744Z" stroke="#919191" stroke-opacity="0.2" stroke-width="2.12343"/>
<path d="M200.189 954.449C233.688 954.449 259.753 963.133 278.384 980.499C297.193 997.686 306.598 1025.35 306.598 1063.48V1257.38H243.451V1075.3C243.451 1052.21 238.704 1034.93 229.21 1023.47C219.715 1011.83 205.026 1006.01 185.141 1006.01C156.3 1006.01 136.236 1014.87 124.95 1032.6C113.844 1050.32 108.29 1076.02 108.29 1109.67V1257.38H45.1433V960.09H94.3174L103.185 1000.37H106.678C113.127 989.99 121.099 981.485 130.593 974.861C140.267 968.059 151.015 962.954 162.839 959.554C174.841 956.151 187.291 954.449 200.189 954.449ZM513.506 954.449C540.017 954.449 562.769 959.912 581.759 970.833C600.745 981.754 615.345 997.239 625.557 1017.29C635.769 1037.34 640.873 1061.34 640.873 1089.26V1123.1H442.298C443.013 1151.93 450.718 1174.13 465.404 1189.71C480.273 1205.28 501.055 1213.07 527.749 1213.07C546.735 1213.07 563.753 1211.28 578.801 1207.7C594.028 1203.94 609.705 1198.48 625.826 1191.31V1242.61C610.957 1249.59 595.82 1254.69 580.414 1257.92C565.009 1261.14 546.556 1262.75 525.059 1262.75C495.861 1262.75 470.154 1257.11 447.939 1245.83C425.905 1234.37 408.618 1217.37 396.078 1194.81C383.716 1172.25 377.539 1144.23 377.539 1110.75C377.539 1077.45 383.18 1049.16 394.468 1025.88C405.753 1002.61 421.606 984.885 442.03 972.713C462.45 960.537 486.275 954.449 513.506 954.449ZM513.506 1001.98C493.622 1001.98 477.498 1008.43 465.136 1021.32C452.957 1034.21 445.789 1053.1 443.639 1077.99H579.069C578.89 1063.13 576.383 1049.97 571.547 1038.51C566.89 1027.05 559.722 1018.1 550.05 1011.65C540.554 1005.21 528.375 1001.98 513.506 1001.98ZM812.043 1262.75C776.572 1262.75 748.089 1249.86 726.592 1224.08C705.274 1198.12 694.615 1159.9 694.615 1109.41C694.615 1058.38 705.453 1019.8 727.129 993.658C748.983 967.519 777.738 954.449 813.384 954.449C828.432 954.449 841.602 956.508 852.887 960.627C864.172 964.566 873.844 969.935 881.906 976.742C890.147 983.544 897.133 991.152 902.866 999.567H905.821C904.927 994.019 903.85 986.05 902.598 975.666C901.521 965.102 900.985 955.347 900.985 946.392V839.51H964.402V1257.38H914.959L903.671 1216.83H900.985C895.612 1225.42 888.802 1233.21 880.565 1240.19C872.502 1246.99 862.827 1252.46 851.542 1256.57C840.436 1260.69 827.27 1262.75 812.043 1262.75ZM829.777 1211.46C856.829 1211.46 875.904 1203.67 887.014 1188.09C898.12 1172.52 903.85 1149.15 904.211 1118V1109.67C904.211 1076.37 898.835 1050.86 888.087 1033.14C877.338 1015.23 857.723 1006.28 829.241 1006.28C806.488 1006.28 789.112 1015.5 777.112 1033.94C765.287 1052.21 759.374 1077.72 759.374 1110.48C759.374 1143.24 765.287 1168.31 777.112 1185.68C789.112 1202.86 806.667 1211.46 829.777 1211.46Z" fill="#F3F3F3"/>
<path d="M1174.8 1262.75C1146.67 1262.75 1122.31 1257.29 1101.71 1246.37C1081.11 1235.45 1065.26 1218.71 1054.15 1196.15C1043.04 1173.59 1037.49 1144.95 1037.49 1110.21C1037.49 1074.05 1043.58 1044.5 1055.76 1021.59C1067.94 998.673 1084.78 981.753 1106.28 970.832C1127.96 959.911 1152.77 954.449 1180.71 954.449C1198.45 954.449 1214.48 956.24 1228.81 959.822C1243.32 963.222 1255.59 967.429 1265.63 972.445L1246.82 1022.93C1235.89 1018.46 1224.69 1014.69 1213.23 1011.65C1201.76 1008.61 1190.74 1007.09 1180.18 1007.09C1162.8 1007.09 1148.29 1010.93 1136.64 1018.63C1125.18 1026.33 1116.58 1037.79 1110.85 1053.01C1105.29 1068.23 1102.52 1087.12 1102.52 1109.67C1102.52 1131.52 1105.38 1149.96 1111.12 1165C1116.85 1179.86 1125.36 1191.13 1136.64 1198.83C1147.93 1206.35 1161.81 1210.11 1178.29 1210.11C1194.6 1210.11 1209.19 1208.14 1222.09 1204.2C1234.99 1200.27 1247.17 1195.16 1258.64 1188.9V1243.68C1247.35 1250.13 1235.26 1254.87 1222.36 1257.92C1209.47 1261.14 1193.61 1262.75 1174.8 1262.75ZM1445.12 954.449C1482.74 954.449 1511.14 962.775 1530.3 979.426C1549.65 996.077 1559.32 1022.04 1559.32 1057.31V1257.38H1514.45L1502.36 1215.22H1500.21C1491.79 1225.96 1483.1 1234.82 1474.14 1241.8C1465.19 1248.79 1454.8 1253.98 1442.97 1257.38C1431.33 1260.96 1417.09 1262.75 1400.25 1262.75C1382.51 1262.75 1366.66 1259.53 1352.69 1253.08C1338.71 1246.46 1327.7 1236.43 1319.64 1223C1311.57 1209.58 1307.54 1192.57 1307.54 1171.98C1307.54 1141.36 1318.92 1118.36 1341.67 1102.96C1364.6 1087.56 1399.17 1079.06 1445.39 1077.45L1496.98 1075.57V1059.99C1496.98 1039.4 1492.15 1024.72 1482.48 1015.95C1472.98 1007.18 1459.54 1002.79 1442.17 1002.79C1427.3 1002.79 1412.88 1004.94 1398.91 1009.24C1384.93 1013.53 1371.32 1018.81 1358.06 1025.08L1337.64 980.499C1352.15 972.802 1368.63 966.536 1387.08 961.702C1405.71 956.866 1425.06 954.449 1445.12 954.449ZM1496.71 1115.31L1458.29 1116.66C1426.76 1117.73 1404.64 1123.1 1391.92 1132.77C1379.2 1142.44 1372.84 1155.69 1372.84 1172.52C1372.84 1187.2 1377.23 1197.94 1386.01 1204.74C1394.79 1211.37 1406.34 1214.68 1420.67 1214.68C1442.53 1214.68 1460.62 1208.5 1474.95 1196.15C1489.46 1183.62 1496.71 1165.26 1496.71 1141.1V1115.31ZM1798.48 954.449C1803.49 954.449 1808.96 954.717 1814.87 955.257C1820.78 955.793 1825.88 956.508 1830.18 957.406L1824.27 1016.49C1820.51 1015.41 1815.85 1014.61 1810.3 1014.07C1804.93 1013.53 1800.09 1013.26 1795.79 1013.26C1784.5 1013.26 1773.76 1015.14 1763.54 1018.9C1753.34 1022.48 1744.29 1028.03 1736.41 1035.55C1728.52 1042.89 1722.34 1052.12 1717.86 1063.22C1713.39 1074.31 1711.15 1087.21 1711.15 1101.89V1257.38H1647.73V960.09H1697.18L1705.77 1012.46H1708.73C1714.64 1001.89 1721.98 992.227 1730.76 983.455C1739.54 974.682 1749.57 967.697 1760.86 962.507C1772.32 957.134 1784.86 954.449 1798.48 954.449ZM2003.77 954.449C2030.28 954.449 2053.04 959.911 2072.02 970.832C2091.01 981.753 2105.61 997.239 2115.82 1017.29C2126.03 1037.34 2131.14 1061.33 2131.14 1089.26V1123.1H1932.56C1933.28 1151.93 1940.98 1174.13 1955.67 1189.7C1970.54 1205.28 1991.32 1213.07 2018.01 1213.07C2037 1213.07 2054.02 1211.28 2069.07 1207.7C2084.3 1203.94 2099.97 1198.48 2116.09 1191.31V1242.61C2101.22 1249.59 2086.09 1254.69 2070.68 1257.92C2055.27 1261.14 2036.82 1262.75 2015.33 1262.75C1986.13 1262.75 1960.42 1257.11 1938.21 1245.83C1916.17 1234.37 1898.88 1217.37 1886.35 1194.81C1873.99 1172.25 1867.8 1144.23 1867.8 1110.75C1867.8 1077.45 1873.45 1049.16 1884.73 1025.88C1896.02 1002.61 1911.87 984.885 1932.3 972.713C1952.72 960.537 1976.54 954.449 2003.77 954.449ZM2003.77 1001.98C1983.89 1001.98 1967.76 1008.43 1955.41 1021.32C1943.22 1034.21 1936.06 1053.1 1933.91 1077.99H2069.34C2069.16 1063.13 2066.65 1049.97 2061.81 1038.51C2057.16 1027.05 2049.99 1018.1 2040.32 1011.65C2030.82 1005.21 2018.64 1001.98 2003.77 1001.98Z" fill="url(#paint1_linear_103_66)"/>
<path d="M278.384 980.499L276.038 983.015L276.063 983.036L278.384 980.499ZM306.598 1257.38V1260.82H310.038V1257.38H306.598ZM243.451 1257.38H240.012V1260.82H243.451V1257.38ZM229.21 1023.47L226.544 1025.64L226.561 1025.66L229.21 1023.47ZM124.95 1032.6L122.048 1030.76L122.035 1030.78L124.95 1032.6ZM108.29 1257.38V1260.82H111.73V1257.38H108.29ZM45.1433 1257.38H41.7039V1260.82H45.1433V1257.38ZM45.1433 960.09V956.653H41.7039V960.09H45.1433ZM94.3174 960.09L97.6764 959.351L97.0824 956.653H94.3174V960.09ZM103.185 1000.37L99.8257 1001.11L100.42 1003.81H103.185V1000.37ZM106.678 1000.37V1003.81H108.591L109.6 1002.19L106.678 1000.37ZM130.593 974.861L132.562 977.68L132.572 977.673L130.593 974.861ZM162.839 959.554L161.9 956.247L161.887 956.251L162.839 959.554ZM200.189 957.887C233.099 957.887 258.224 966.408 276.038 983.015L280.73 977.986C261.283 959.86 234.277 951.012 200.189 951.012V957.887ZM276.063 983.036C293.869 999.309 303.159 1025.83 303.159 1063.48H310.038C310.038 1024.86 300.518 996.067 280.705 977.962L276.063 983.036ZM303.159 1063.48V1257.38H310.038V1063.48H303.159ZM306.598 1253.94H243.451V1260.82H306.598V1253.94ZM246.891 1257.38V1075.3H240.012V1257.38H246.891ZM246.891 1075.3C246.891 1051.82 242.08 1033.61 231.859 1021.28L226.561 1025.66C235.329 1036.24 240.012 1052.58 240.012 1075.3H246.891ZM231.875 1021.3C221.531 1008.62 205.701 1002.57 185.141 1002.57V1009.45C204.35 1009.45 217.9 1015.05 226.544 1025.64L231.875 1021.3ZM185.141 1002.57C155.608 1002.57 134.187 1011.69 122.048 1030.76L127.852 1034.44C138.284 1018.06 156.992 1009.45 185.141 1009.45V1002.57ZM122.035 1030.78C110.436 1049.29 104.851 1075.73 104.851 1109.67H111.73C111.73 1076.31 117.251 1051.36 127.865 1034.42L122.035 1030.78ZM104.851 1109.67V1257.38H111.73V1109.67H104.851ZM108.29 1253.94H45.1433V1260.82H108.29V1253.94ZM48.5828 1257.38V960.09H41.7039V1257.38H48.5828ZM45.1433 963.528H94.3174V956.653H45.1433V963.528ZM90.958 960.83L99.8257 1001.11L106.544 999.635L97.6764 959.351L90.958 960.83ZM103.185 1003.81H106.678V996.937H103.185V1003.81ZM109.6 1002.19C115.817 992.176 123.472 984.022 132.562 977.68L128.624 972.043C118.726 978.949 110.437 987.804 103.756 998.559L109.6 1002.19ZM132.572 977.673C141.921 971.097 152.319 966.158 163.79 962.858L161.887 956.251C149.711 959.754 138.613 965.016 128.614 972.05L132.572 977.673ZM163.777 962.861C175.464 959.547 187.597 957.887 200.189 957.887V951.012C186.984 951.012 174.218 952.755 161.9 956.247L163.777 962.861ZM640.873 1123.1V1126.54H644.313V1123.1H640.873ZM442.298 1123.1V1119.67H438.772L438.858 1123.19L442.298 1123.1ZM465.404 1189.71L462.904 1192.06L462.918 1192.08L465.404 1189.71ZM578.801 1207.7L579.599 1211.04L579.626 1211.03L578.801 1207.7ZM625.826 1191.31H629.265V1186.03L624.429 1188.18L625.826 1191.31ZM625.826 1242.61L627.287 1245.72L629.265 1244.79V1242.61H625.826ZM447.939 1245.83L446.353 1248.88L446.381 1248.9L447.939 1245.83ZM396.078 1194.81L393.062 1196.46L393.072 1196.48L396.078 1194.81ZM465.136 1021.32L462.653 1018.94L462.636 1018.96L465.136 1021.32ZM443.639 1077.99L440.214 1077.69L439.89 1081.42H443.639V1077.99ZM579.069 1077.99V1081.42H582.55L582.509 1077.95L579.069 1077.99ZM571.547 1038.51L568.359 1039.8L568.379 1039.84L571.547 1038.51ZM550.05 1011.65L548.117 1014.5L548.141 1014.51L550.05 1011.65ZM513.506 957.887C539.543 957.887 561.676 963.246 580.043 973.813L583.472 967.852C563.863 956.574 540.495 951.012 513.506 951.012V957.887ZM580.043 973.813C598.437 984.39 612.573 999.378 622.493 1018.85L628.622 1015.73C618.118 995.105 603.056 979.117 583.472 967.852L580.043 973.813ZM622.493 1018.85C632.405 1038.32 637.434 1061.75 637.434 1089.26H644.313C644.313 1060.92 639.133 1036.37 628.622 1015.73L622.493 1018.85ZM637.434 1089.26V1123.1H644.313V1089.26H637.434ZM640.873 1119.67H442.298V1126.54H640.873V1119.67ZM438.858 1123.19C439.588 1152.56 447.457 1175.68 462.904 1192.06L467.908 1187.35C453.978 1172.57 446.439 1151.29 445.734 1123.02L438.858 1123.19ZM462.918 1192.08C478.585 1208.49 500.353 1216.51 527.749 1216.51V1209.63C501.756 1209.63 481.966 1202.07 467.895 1187.33L462.918 1192.08ZM527.749 1216.51C546.944 1216.51 564.238 1214.7 579.599 1211.04L578.006 1204.35C563.268 1207.86 546.525 1209.63 527.749 1209.63V1216.51ZM579.626 1211.03C595.073 1207.22 610.94 1201.69 627.222 1194.46L624.429 1188.18C608.47 1195.26 592.985 1200.65 577.975 1204.36L579.626 1211.03ZM622.386 1191.31V1242.61H629.265V1191.31H622.386ZM624.364 1239.5C609.725 1246.37 594.843 1251.39 579.709 1254.55L581.119 1261.28C596.796 1258 612.188 1252.81 627.287 1245.72L624.364 1239.5ZM579.709 1254.55C564.603 1257.71 546.401 1259.31 525.059 1259.31V1266.19C546.714 1266.19 565.414 1264.57 581.119 1261.28L579.709 1254.55ZM525.059 1259.31C496.308 1259.31 471.152 1253.76 449.497 1242.77L446.381 1248.9C469.153 1260.46 495.411 1266.19 525.059 1266.19V1259.31ZM449.528 1242.78C428.117 1231.65 411.312 1215.13 399.084 1193.14L393.072 1196.48C405.925 1219.6 423.697 1237.1 446.353 1248.88L449.528 1242.78ZM399.094 1193.16C387.084 1171.23 380.979 1143.82 380.979 1110.75H374.1C374.1 1144.64 380.353 1173.26 393.062 1196.46L399.094 1193.16ZM380.979 1110.75C380.979 1077.82 386.557 1050.08 397.56 1027.39L391.373 1024.39C379.802 1048.24 374.1 1077.07 374.1 1110.75H380.979ZM397.56 1027.39C408.581 1004.66 423.996 987.463 443.791 975.666L440.265 969.76C419.215 982.307 402.923 1000.56 391.373 1024.39L397.56 1027.39ZM443.791 975.666C463.606 963.851 486.805 957.887 513.506 957.887V951.012C485.746 951.012 461.294 957.224 440.265 969.76L443.791 975.666ZM513.506 998.546C492.8 998.546 475.74 1005.29 462.653 1018.94L467.619 1023.7C479.255 1011.56 494.441 1005.42 513.506 1005.42V998.546ZM462.636 1018.96C449.741 1032.6 442.405 1052.34 440.214 1077.69L447.068 1078.28C449.177 1053.86 456.169 1035.82 467.637 1023.68L462.636 1018.96ZM443.639 1081.42H579.069V1074.55H443.639V1081.42ZM582.509 1077.95C582.326 1062.72 579.757 1049.11 574.715 1037.17L568.379 1039.84C573.012 1050.82 575.458 1063.53 575.63 1078.03L582.509 1077.95ZM574.732 1037.21C569.834 1025.16 562.243 1015.64 551.959 1008.79L548.141 1014.51C557.204 1020.55 563.946 1028.94 568.359 1039.8L574.732 1037.21ZM551.983 1008.81C541.771 1001.88 528.86 998.546 513.506 998.546V1005.42C527.886 1005.42 539.34 1008.54 548.117 1014.5L551.983 1008.81ZM726.592 1224.08L723.934 1226.26L723.951 1226.28L726.592 1224.08ZM727.129 993.658L724.491 991.454L724.481 991.464L727.129 993.658ZM852.887 960.627L851.707 963.858L851.752 963.872L852.887 960.627ZM881.906 976.742L879.688 979.368L879.715 979.392L881.906 976.742ZM902.866 999.567L900.022 1001.5L901.047 1003H902.866V999.567ZM905.821 999.567V1003H909.862L909.219 999.02L905.821 999.567ZM902.598 975.666L899.176 976.013L899.179 976.047L899.183 976.078L902.598 975.666ZM900.985 839.51V836.072H897.545V839.51H900.985ZM964.402 839.51H967.842V836.072H964.402V839.51ZM964.402 1257.38V1260.82H967.842V1257.38H964.402ZM914.96 1257.38L911.644 1258.3L912.346 1260.82H914.96V1257.38ZM903.671 1216.83L906.987 1215.91L906.285 1213.39H903.671V1216.83ZM900.985 1216.83V1213.39H899.079L898.068 1215.01L900.985 1216.83ZM880.565 1240.19L882.783 1242.82L882.787 1242.81L880.565 1240.19ZM851.542 1256.57L850.362 1253.34L850.345 1253.35L851.542 1256.57ZM904.211 1118L907.651 1118.04V1118H904.211ZM888.087 1033.14L885.139 1034.9L885.146 1034.92L888.087 1033.14ZM777.112 1033.94L774.226 1032.07L774.223 1032.08L777.112 1033.94ZM777.112 1185.68L774.267 1187.61L774.288 1187.64L777.112 1185.68ZM812.043 1259.31C777.528 1259.31 750.036 1246.83 729.234 1221.88L723.951 1226.28C746.142 1252.89 775.619 1266.19 812.043 1266.19V1259.31ZM729.251 1221.9C708.638 1196.8 698.055 1159.48 698.055 1109.41H691.176C691.176 1160.3 701.911 1199.44 723.934 1226.26L729.251 1221.9ZM698.055 1109.41C698.055 1058.79 708.817 1021.13 729.777 995.854L724.481 991.464C702.093 1018.47 691.176 1057.97 691.176 1109.41H698.055ZM729.77 995.864C750.937 970.547 778.701 957.887 813.384 957.887V951.012C776.771 951.012 747.033 964.494 724.491 991.454L729.77 995.864ZM813.384 957.887C828.13 957.887 840.88 959.908 851.707 963.858L854.067 957.399C842.321 953.112 828.738 951.012 813.384 951.012V957.887ZM851.752 963.872C862.693 967.691 871.987 972.868 879.688 979.368L884.125 974.115C875.705 967.007 865.651 961.441 854.019 957.382L851.752 963.872ZM879.715 979.392C887.719 985.999 894.481 993.369 900.022 1001.5L905.711 997.631C899.785 988.938 892.575 981.09 884.097 974.091L879.715 979.392ZM902.866 1003H905.821V996.129H902.866V1003ZM909.219 999.02C908.332 993.537 907.265 985.624 906.013 975.253L899.183 976.078C900.438 986.477 901.521 994.496 902.426 1000.11L909.219 999.02ZM906.02 975.319C904.954 964.851 904.424 955.209 904.424 946.392H897.545C897.545 955.481 898.092 965.357 899.176 976.013L906.02 975.319ZM904.424 946.392V839.51H897.545V946.392H904.424ZM900.985 842.947H964.402V836.072H900.985V842.947ZM960.963 839.51V1257.38H967.842V839.51H960.963ZM964.402 1253.94H914.96V1260.82H964.402V1253.94ZM918.272 1256.46L906.987 1215.91L900.359 1217.75L911.644 1258.3L918.272 1256.46ZM903.671 1213.39H900.985V1220.26H903.671V1213.39ZM898.068 1215.01C892.895 1223.28 886.326 1230.8 878.339 1237.57L882.787 1242.81C891.282 1235.62 898.326 1227.56 903.902 1218.65L898.068 1215.01ZM878.343 1237.57C870.631 1244.08 861.321 1249.35 850.362 1253.34L852.722 1259.8C864.334 1255.57 874.374 1249.92 882.783 1242.82L878.343 1237.57ZM850.345 1253.35C839.714 1257.29 826.97 1259.31 812.043 1259.31V1266.19C827.566 1266.19 841.158 1264.09 852.739 1259.8L850.345 1253.35ZM829.777 1214.9C857.448 1214.9 877.82 1206.91 889.813 1190.09L884.21 1186.1C873.992 1200.43 856.206 1208.02 829.777 1208.02V1214.9ZM889.813 1190.09C901.511 1173.68 907.286 1149.49 907.651 1118.04L900.772 1117.96C900.417 1148.81 894.728 1171.35 884.21 1186.1L889.813 1190.09ZM907.651 1118V1109.67H900.772V1118H907.651ZM907.651 1109.67C907.651 1076.09 902.244 1049.85 891.028 1031.36L885.146 1034.92C895.427 1051.87 900.772 1076.66 900.772 1109.67H907.651ZM891.038 1031.37C879.45 1012.07 858.438 1002.84 829.241 1002.84V1009.72C857.008 1009.72 875.227 1018.4 885.139 1034.9L891.038 1031.37ZM829.241 1002.84C805.374 1002.84 786.89 1012.61 774.226 1032.07L779.994 1035.82C791.334 1018.39 807.606 1009.72 829.241 1009.72V1002.84ZM774.223 1032.08C761.899 1051.11 755.935 1077.37 755.935 1110.48H762.814C762.814 1078.07 768.675 1053.3 779.997 1035.81L774.223 1032.08ZM755.935 1110.48C755.935 1143.58 761.892 1169.43 774.267 1187.61L779.953 1183.74C768.681 1167.18 762.814 1142.91 762.814 1110.48H755.935ZM774.288 1187.64C787.007 1205.86 805.677 1214.9 829.777 1214.9V1208.02C807.658 1208.02 791.217 1199.87 779.932 1183.71L774.288 1187.64ZM1106.28 970.833L1104.73 967.763L1104.72 967.766L1106.28 970.833ZM1228.81 959.822L1227.98 963.157L1228 963.164L1228.03 963.167L1228.81 959.822ZM1265.63 972.445L1268.85 973.644L1269.93 970.75L1267.16 969.368L1265.63 972.445ZM1246.82 1022.93L1245.51 1026.11L1248.8 1027.46L1250.04 1024.13L1246.82 1022.93ZM1136.65 1018.63L1134.75 1015.77L1134.73 1015.78L1136.65 1018.63ZM1110.85 1053.01L1107.63 1051.8L1107.62 1051.83L1110.85 1053.01ZM1111.12 1165L1107.9 1166.22L1107.91 1166.23L1111.12 1165ZM1136.65 1198.84L1134.71 1201.67L1134.74 1201.7L1136.65 1198.84ZM1258.64 1188.9H1262.08V1183.1L1256.99 1185.88L1258.64 1188.9ZM1258.64 1243.68L1260.35 1246.67L1262.08 1245.68V1243.68H1258.64ZM1222.36 1257.92L1221.57 1254.57L1221.53 1254.58L1222.36 1257.92ZM1174.8 1259.31C1147.12 1259.31 1123.33 1253.94 1103.32 1243.33L1100.1 1249.4C1121.29 1260.64 1146.23 1266.19 1174.8 1266.19V1259.31ZM1103.32 1243.33C1083.41 1232.78 1068.05 1216.6 1057.24 1194.63L1051.06 1197.67C1062.46 1220.82 1078.81 1238.12 1100.1 1249.4L1103.32 1243.33ZM1057.24 1194.63C1046.43 1172.69 1040.93 1144.61 1040.93 1110.21H1034.05C1034.05 1145.28 1039.65 1174.49 1051.06 1197.67L1057.24 1194.63ZM1040.93 1110.21C1040.93 1074.4 1046.97 1045.46 1058.8 1023.2L1052.72 1019.98C1040.19 1043.55 1034.05 1073.69 1034.05 1110.21H1040.93ZM1058.8 1023.2C1070.68 1000.86 1087.02 984.473 1107.84 973.895L1104.72 967.766C1082.55 979.035 1065.21 996.487 1052.72 1019.98L1058.8 1023.2ZM1107.83 973.902C1128.96 963.256 1153.22 957.887 1180.71 957.887V951.012C1152.31 951.012 1126.96 956.564 1104.73 967.763L1107.83 973.902ZM1180.71 957.887C1198.22 957.887 1213.97 959.654 1227.98 963.157L1229.65 956.488C1214.99 952.827 1198.68 951.012 1180.71 951.012V957.887ZM1228.03 963.167C1242.35 966.529 1254.36 970.657 1264.09 975.518L1267.16 969.368C1256.83 964.205 1244.29 959.919 1229.6 956.474L1228.03 963.167ZM1262.4 971.245L1243.59 1021.73L1250.04 1024.13L1268.85 973.644L1262.4 971.245ZM1248.12 1019.75C1237.05 1015.22 1225.72 1011.41 1214.11 1008.33L1212.34 1014.97C1223.66 1017.98 1234.72 1021.69 1245.51 1026.11L1248.12 1019.75ZM1214.11 1008.33C1202.39 1005.22 1191.07 1003.65 1180.18 1003.65V1010.53C1190.41 1010.53 1201.13 1012 1212.34 1014.97L1214.11 1008.33ZM1180.18 1003.65C1162.29 1003.65 1147.08 1007.61 1134.75 1015.77L1138.54 1021.5C1149.5 1014.26 1163.31 1010.53 1180.18 1010.53V1003.65ZM1134.73 1015.78C1122.57 1023.95 1113.57 1036.04 1107.63 1051.8L1114.07 1054.22C1119.59 1039.55 1127.79 1028.72 1138.56 1021.49L1134.73 1015.78ZM1107.62 1051.83C1101.88 1067.54 1099.08 1086.86 1099.08 1109.67H1105.96C1105.96 1087.37 1108.71 1068.91 1114.08 1054.19L1107.62 1051.83ZM1099.08 1109.67C1099.08 1131.8 1101.98 1150.68 1107.9 1166.22L1114.33 1163.77C1108.79 1149.24 1105.96 1131.24 1105.96 1109.67H1099.08ZM1107.91 1166.23C1113.85 1181.63 1122.75 1193.52 1134.71 1201.67L1138.58 1196C1127.96 1188.75 1119.85 1178.08 1114.33 1163.76L1107.91 1166.23ZM1134.74 1201.7C1146.7 1209.67 1161.28 1213.55 1178.29 1213.55V1206.68C1162.34 1206.68 1149.16 1203.04 1138.55 1195.98L1134.74 1201.7ZM1178.29 1213.55C1194.87 1213.55 1209.82 1211.55 1223.1 1207.49L1221.09 1200.92C1208.58 1204.74 1194.33 1206.68 1178.29 1206.68V1213.55ZM1223.1 1207.49C1236.21 1203.49 1248.61 1198.3 1260.29 1191.92L1256.99 1185.88C1245.74 1192.03 1233.77 1197.05 1221.09 1200.92L1223.1 1207.49ZM1255.2 1188.9V1243.68H1262.08V1188.9H1255.2ZM1256.93 1240.7C1245.94 1246.98 1234.15 1251.6 1221.57 1254.57L1223.15 1261.26C1236.37 1258.15 1248.77 1253.28 1260.35 1246.67L1256.93 1240.7ZM1221.53 1254.58C1208.99 1257.72 1193.43 1259.31 1174.8 1259.31V1266.19C1193.79 1266.19 1209.94 1264.56 1223.2 1261.25L1221.53 1254.58ZM1530.31 979.426L1528.05 982.022L1528.06 982.032L1530.31 979.426ZM1559.32 1257.38V1260.82H1562.76V1257.38H1559.32ZM1514.45 1257.38L1511.14 1258.33L1511.86 1260.82H1514.45V1257.38ZM1502.36 1215.22L1505.66 1214.27L1504.95 1211.78H1502.36V1215.22ZM1500.21 1215.22V1211.78H1498.53L1497.5 1213.1L1500.21 1215.22ZM1442.97 1257.38L1442.02 1254.08L1441.99 1254.09L1441.96 1254.09L1442.97 1257.38ZM1352.69 1253.08L1351.21 1256.19L1351.25 1256.2L1352.69 1253.08ZM1341.67 1102.96L1339.75 1100.11L1339.74 1100.11L1341.67 1102.96ZM1445.39 1077.45L1445.51 1080.88H1445.52L1445.39 1077.45ZM1496.98 1075.57L1497.11 1079L1500.42 1078.88V1075.57H1496.98ZM1482.48 1015.95L1480.14 1018.47L1480.16 1018.49L1482.48 1015.95ZM1358.06 1025.08L1354.94 1026.51L1356.38 1029.68L1359.53 1028.19L1358.06 1025.08ZM1337.64 980.499L1336.03 977.464L1333.16 978.983L1334.51 981.932L1337.64 980.499ZM1387.08 961.703L1386.22 958.375H1386.21L1387.08 961.703ZM1496.72 1115.31H1500.15V1111.76L1496.59 1111.88L1496.72 1115.31ZM1458.29 1116.66L1458.41 1120.09H1458.41L1458.29 1116.66ZM1386.01 1204.74L1383.9 1207.46L1383.93 1207.49L1386.01 1204.74ZM1474.95 1196.15L1477.2 1198.75L1477.2 1198.75L1474.95 1196.15ZM1445.12 957.887C1482.3 957.887 1509.75 966.123 1528.05 982.022L1532.56 976.831C1512.53 959.427 1483.18 951.012 1445.12 951.012V957.887ZM1528.06 982.032C1546.39 997.807 1555.88 1022.64 1555.88 1057.31H1562.76C1562.76 1021.44 1552.91 994.345 1532.55 976.821L1528.06 982.032ZM1555.88 1057.31V1257.38H1562.76V1057.31H1555.88ZM1559.32 1253.94H1514.45V1260.82H1559.32V1253.94ZM1517.76 1256.43L1505.66 1214.27L1499.05 1216.16L1511.14 1258.33L1517.76 1256.43ZM1502.36 1211.78H1500.21V1218.66H1502.36V1211.78ZM1497.5 1213.1C1489.22 1223.66 1480.72 1232.31 1472.03 1239.09L1476.26 1244.51C1485.47 1237.33 1494.36 1228.26 1502.92 1217.34L1497.5 1213.1ZM1472.03 1239.09C1463.44 1245.78 1453.46 1250.79 1442.02 1254.08L1443.93 1260.68C1456.14 1257.17 1466.93 1251.79 1476.26 1244.51L1472.03 1239.09ZM1441.96 1254.09C1430.75 1257.54 1416.87 1259.31 1400.25 1259.31V1266.19C1417.31 1266.19 1431.92 1264.38 1443.98 1260.67L1441.96 1254.09ZM1400.25 1259.31C1382.94 1259.31 1367.59 1256.17 1354.13 1249.96L1351.25 1256.2C1365.74 1262.89 1382.09 1266.19 1400.25 1266.19V1259.31ZM1354.16 1249.98C1340.81 1243.65 1330.3 1234.09 1322.58 1221.24L1316.69 1224.77C1325.09 1238.78 1336.62 1249.27 1351.21 1256.19L1354.16 1249.98ZM1322.58 1221.24C1314.93 1208.48 1310.98 1192.14 1310.98 1171.98H1304.1C1304.1 1193 1308.22 1210.67 1316.69 1224.77L1322.58 1221.24ZM1310.98 1171.98C1310.98 1142.35 1321.91 1120.48 1343.6 1105.81L1339.74 1100.11C1315.93 1116.23 1304.1 1140.38 1304.1 1171.98H1310.98ZM1343.59 1105.81C1365.74 1090.94 1399.55 1082.49 1445.51 1080.88L1445.27 1074.01C1398.8 1075.63 1363.46 1084.18 1339.75 1100.11L1343.59 1105.81ZM1445.52 1080.88L1497.11 1079L1496.86 1072.13L1445.27 1074.01L1445.52 1080.88ZM1500.42 1075.57V1059.99H1493.54V1075.57H1500.42ZM1500.42 1059.99C1500.42 1038.98 1495.5 1023.12 1484.79 1013.4L1480.16 1018.49C1488.79 1026.32 1493.54 1039.82 1493.54 1059.99H1500.42ZM1484.81 1013.43C1474.49 1003.89 1460.11 999.354 1442.17 999.354V1006.23C1458.98 1006.23 1471.47 1010.47 1480.14 1018.47L1484.81 1013.43ZM1442.17 999.354C1426.96 999.354 1412.2 1001.55 1397.89 1005.95L1399.92 1012.52C1413.55 1008.33 1427.64 1006.23 1442.17 1006.23V999.354ZM1397.89 1005.95C1383.76 1010.3 1369.99 1015.64 1356.59 1021.97L1359.53 1028.19C1372.64 1021.99 1386.1 1016.77 1399.92 1012.52L1397.89 1005.95ZM1361.19 1023.65L1340.77 979.069L1334.51 981.932L1354.94 1026.51L1361.19 1023.65ZM1339.25 983.538C1353.49 975.982 1369.72 969.805 1387.95 965.027L1386.21 958.375C1367.54 963.267 1350.8 969.623 1336.03 977.464L1339.25 983.538ZM1387.95 965.027C1406.28 960.269 1425.34 957.887 1445.12 957.887V951.012C1424.78 951.012 1405.14 953.463 1386.22 958.375L1387.95 965.027ZM1496.59 1111.88L1458.17 1113.22L1458.41 1120.09L1496.84 1118.75L1496.59 1111.88ZM1458.17 1113.22C1426.51 1114.3 1403.45 1119.68 1389.84 1130.03L1394 1135.51C1405.82 1126.52 1427.01 1121.16 1458.41 1120.09L1458.17 1113.22ZM1389.84 1130.03C1376.21 1140.39 1369.4 1154.68 1369.4 1172.52H1376.28C1376.28 1156.69 1382.19 1144.48 1394 1135.51L1389.84 1130.03ZM1369.4 1172.52C1369.4 1187.89 1374.02 1199.81 1383.9 1207.46L1388.12 1202.03C1380.43 1196.07 1376.28 1186.5 1376.28 1172.52H1369.4ZM1383.93 1207.49C1393.47 1214.68 1405.82 1218.12 1420.67 1218.12V1211.24C1406.86 1211.24 1396.1 1208.05 1388.08 1202L1383.93 1207.49ZM1420.67 1218.12C1443.21 1218.12 1462.14 1211.73 1477.2 1198.75L1472.7 1193.54C1459.09 1205.28 1441.84 1211.24 1420.67 1211.24V1218.12ZM1477.2 1198.75C1492.66 1185.4 1500.15 1165.98 1500.15 1141.1H1493.28C1493.28 1164.55 1486.27 1181.83 1472.7 1193.55L1477.2 1198.75ZM1500.15 1141.1V1115.31H1493.28V1141.1H1500.15ZM1830.18 957.406L1833.61 957.746L1833.92 954.669L1830.89 954.04L1830.18 957.406ZM1824.27 1016.49L1823.33 1019.79L1827.29 1020.92L1827.7 1016.83L1824.27 1016.49ZM1810.3 1014.07L1809.96 1017.49H1809.97L1810.3 1014.07ZM1763.54 1018.9L1764.68 1022.15L1764.71 1022.14L1764.73 1022.13L1763.54 1018.9ZM1736.41 1035.55L1738.75 1038.07L1738.78 1038.04L1736.41 1035.55ZM1711.15 1257.38V1260.82H1714.59V1257.38H1711.15ZM1647.73 1257.38H1644.29V1260.82H1647.73V1257.38ZM1647.73 960.09V956.653H1644.29V960.09H1647.73ZM1697.18 960.09L1700.57 959.534L1700.1 956.653H1697.18V960.09ZM1705.77 1012.46L1702.38 1013.01L1702.85 1015.89H1705.77V1012.46ZM1708.73 1012.46V1015.89H1710.74L1711.73 1014.13L1708.73 1012.46ZM1760.86 962.507L1762.3 965.628L1762.32 965.618L1760.86 962.507ZM1798.48 957.887C1803.37 957.887 1808.73 958.148 1814.56 958.678L1815.18 951.834C1809.18 951.287 1803.61 951.012 1798.48 951.012V957.887ZM1814.56 958.678C1820.38 959.207 1825.35 959.908 1829.48 960.771L1830.89 954.04C1826.42 953.109 1821.18 952.377 1815.18 951.834L1814.56 958.678ZM1826.76 957.062L1820.85 1016.15L1827.7 1016.83L1833.61 957.746L1826.76 957.062ZM1825.22 1013.18C1821.19 1012.03 1816.31 1011.2 1810.63 1010.65L1809.97 1017.49C1815.39 1018.02 1819.83 1018.79 1823.33 1019.79L1825.22 1013.18ZM1810.64 1010.65C1805.18 1010.1 1800.23 1009.83 1795.79 1009.83V1016.7C1799.95 1016.7 1804.67 1016.96 1809.96 1017.49L1810.64 1010.65ZM1795.79 1009.83C1784.12 1009.83 1772.96 1011.77 1762.36 1015.68L1764.73 1022.13C1774.55 1018.51 1784.9 1016.7 1795.79 1016.7V1009.83ZM1762.41 1015.66C1751.73 1019.4 1742.26 1025.21 1734.03 1033.07L1738.78 1038.04C1746.31 1030.85 1754.94 1025.56 1764.68 1022.15L1762.41 1015.66ZM1734.06 1033.04C1725.77 1040.76 1719.32 1050.41 1714.68 1061.93L1721.06 1064.5C1725.37 1053.81 1731.27 1045.03 1738.75 1038.07L1734.06 1033.04ZM1714.68 1061.93C1710 1073.52 1707.71 1086.86 1707.71 1101.89H1714.59C1714.59 1087.55 1716.77 1075.11 1721.06 1064.5L1714.68 1061.93ZM1707.71 1101.89V1257.38H1714.59V1101.89H1707.71ZM1711.15 1253.94H1647.73V1260.82H1711.15V1253.94ZM1651.17 1257.38V960.09H1644.29V1257.38H1651.17ZM1647.73 963.528H1697.18V956.653H1647.73V963.528ZM1693.78 960.647L1702.38 1013.01L1709.17 1011.9L1700.57 959.534L1693.78 960.647ZM1705.77 1015.89H1708.73V1009.02H1705.77V1015.89ZM1711.73 1014.13C1717.48 1003.86 1724.64 994.441 1733.19 985.885L1728.33 981.025C1719.34 990.014 1711.8 999.935 1705.73 1010.78L1711.73 1014.13ZM1733.19 985.885C1741.69 977.398 1751.38 970.65 1762.3 965.628L1759.42 959.386C1747.76 964.745 1737.4 971.964 1728.33 981.025L1733.19 985.885ZM1762.32 965.618C1773.29 960.479 1785.33 957.887 1798.48 957.887V951.012C1784.4 951.012 1771.35 953.793 1759.4 959.393L1762.32 965.618ZM2131.14 1123.1V1126.54H2134.58V1123.1H2131.14ZM1932.56 1123.1V1119.67H1929.04L1929.12 1123.19L1932.56 1123.1ZM1955.67 1189.71L1953.17 1192.06L1953.18 1192.08L1955.67 1189.71ZM2069.07 1207.7L2069.86 1211.04L2069.89 1211.03L2069.07 1207.7ZM2116.09 1191.31H2119.53V1186.03L2114.7 1188.18L2116.09 1191.31ZM2116.09 1242.61L2117.56 1245.72L2119.53 1244.79V1242.61H2116.09ZM1938.21 1245.83L1936.62 1248.88L1936.65 1248.9L1938.21 1245.83ZM1886.35 1194.81L1883.33 1196.46L1883.34 1196.48L1886.35 1194.81ZM1955.41 1021.32L1952.92 1018.94L1952.9 1018.96L1955.41 1021.32ZM1933.91 1077.99L1930.48 1077.69L1930.16 1081.42H1933.91V1077.99ZM2069.34 1077.99V1081.42H2072.82L2072.78 1077.95L2069.34 1077.99ZM2061.81 1038.51L2058.63 1039.8L2058.65 1039.84L2061.81 1038.51ZM2040.32 1011.65L2038.38 1014.5L2038.41 1014.51L2040.32 1011.65ZM2003.77 957.887C2029.81 957.887 2051.94 963.246 2070.31 973.813L2073.74 967.852C2054.13 956.574 2030.76 951.012 2003.77 951.012V957.887ZM2070.31 973.813C2088.7 984.39 2102.84 999.378 2112.76 1018.85L2118.89 1015.73C2108.38 995.105 2093.32 979.117 2073.74 967.852L2070.31 973.813ZM2112.76 1018.85C2122.67 1038.32 2127.7 1061.75 2127.7 1089.26H2134.58C2134.58 1060.92 2129.4 1036.37 2118.89 1015.73L2112.76 1018.85ZM2127.7 1089.26V1123.1H2134.58V1089.26H2127.7ZM2131.14 1119.67H1932.56V1126.54H2131.14V1119.67ZM1929.12 1123.19C1929.86 1152.56 1937.72 1175.68 1953.17 1192.06L1958.17 1187.35C1944.24 1172.57 1936.7 1151.29 1936 1123.02L1929.12 1123.19ZM1953.18 1192.08C1968.85 1208.49 1990.62 1216.51 2018.01 1216.51V1209.63C1992.02 1209.63 1972.23 1202.07 1958.16 1187.33L1953.18 1192.08ZM2018.01 1216.51C2037.21 1216.51 2054.5 1214.7 2069.86 1211.04L2068.27 1204.35C2053.54 1207.86 2036.79 1209.63 2018.01 1209.63V1216.51ZM2069.89 1211.03C2085.34 1207.22 2101.21 1201.69 2117.49 1194.46L2114.7 1188.18C2098.74 1195.26 2083.25 1200.65 2068.24 1204.36L2069.89 1211.03ZM2112.65 1191.31V1242.61H2119.53V1191.31H2112.65ZM2114.63 1239.5C2099.99 1246.37 2085.11 1251.39 2069.97 1254.55L2071.39 1261.28C2087.07 1258 2102.45 1252.81 2117.56 1245.72L2114.63 1239.5ZM2069.97 1254.55C2054.87 1257.71 2036.67 1259.31 2015.33 1259.31V1266.19C2036.98 1266.19 2055.68 1264.57 2071.39 1261.28L2069.97 1254.55ZM2015.33 1259.31C1986.57 1259.31 1961.42 1253.76 1939.77 1242.77L1936.65 1248.9C1959.42 1260.46 1985.68 1266.19 2015.33 1266.19V1259.31ZM1939.79 1242.78C1918.38 1231.65 1901.58 1215.13 1889.35 1193.14L1883.34 1196.48C1896.19 1219.6 1913.96 1237.1 1936.62 1248.88L1939.79 1242.78ZM1889.36 1193.16C1877.35 1171.23 1871.24 1143.82 1871.24 1110.75H1864.37C1864.37 1144.64 1870.62 1173.26 1883.33 1196.46L1889.36 1193.16ZM1871.24 1110.75C1871.24 1077.82 1876.82 1050.08 1887.83 1027.39L1881.64 1024.39C1870.07 1048.24 1864.37 1077.07 1864.37 1110.75H1871.24ZM1887.83 1027.39C1898.85 1004.66 1914.26 987.463 1934.06 975.666L1930.53 969.76C1909.48 982.307 1893.19 1000.56 1881.64 1024.39L1887.83 1027.39ZM1934.06 975.666C1953.87 963.851 1977.07 957.887 2003.77 957.887V951.012C1976.01 951.012 1951.56 957.224 1930.53 969.76L1934.06 975.666ZM2003.77 998.546C1983.07 998.546 1966.01 1005.29 1952.92 1018.94L1957.89 1023.7C1969.52 1011.56 1984.71 1005.42 2003.77 1005.42V998.546ZM1952.9 1018.96C1940.01 1032.6 1932.67 1052.34 1930.48 1077.69L1937.33 1078.28C1939.44 1053.86 1946.44 1035.82 1957.91 1023.68L1952.9 1018.96ZM1933.91 1081.42H2069.34V1074.55H1933.91V1081.42ZM2072.78 1077.95C2072.59 1062.72 2070.02 1049.11 2064.98 1037.17L2058.65 1039.84C2063.28 1050.82 2065.72 1063.53 2065.9 1078.03L2072.78 1077.95ZM2065 1037.21C2060.1 1025.16 2052.51 1015.64 2042.23 1008.79L2038.41 1014.51C2047.47 1020.55 2054.21 1028.94 2058.63 1039.8L2065 1037.21ZM2042.25 1008.81C2032.04 1001.88 2019.13 998.546 2003.77 998.546V1005.42C2018.15 1005.42 2029.61 1008.54 2038.38 1014.5L2042.25 1008.81Z" fill="#757373" fill-opacity="0.1"/>
<defs>
<linearGradient id="paint0_linear_103_66" x1="665.036" y1="2.69239" x2="1367.65" y2="826.773" gradientUnits="userSpaceOnUse">
<stop stop-color="#F64F59"/>
<stop offset="1" stop-color="#EA2088"/>
</linearGradient>
<linearGradient id="paint1_linear_103_66" x1="2160" y1="769.254" x2="1896.96" y2="1802.28" gradientUnits="userSpaceOnUse">
<stop stop-color="#F64F59"/>
<stop offset="1" stop-color="#EA2088"/>
</linearGradient>
</defs>
</svg>
