<svg xmlns="http://www.w3.org/2000/svg" width="140" height="56" viewBox="0 0 140 56" fill="none">
  <path d="M27.1563 23.7958V21.0839H17.5905V35.0336H27.1563V32.2042H21.4654V29.1131H26.1955V26.4064H21.4654V23.7958H27.1563Z" fill="white"/>
  <path d="M44.0225 32.2842H38.0465V21.0839H34.1241V35.0336H44.0225V32.2842Z" fill="white"/>
  <path d="M75.6188 26.3904C72.9792 25.7872 72.0448 25.7178 72.0448 24.6554C72.0448 23.593 73.3541 23.3581 74.109 23.3581C75.5492 23.3792 76.9638 23.7451 78.2373 24.4258L79.2931 21.8633C77.654 21.0438 75.8419 20.6406 74.0139 20.6888C70.3661 20.6888 67.9165 22.1836 67.8162 25.0984C67.7106 27.7677 69.854 28.7554 71.8178 29.1665C73.7816 29.5776 75.6347 29.9032 75.6769 31.0403C75.7085 32.108 74.7794 32.5405 73.0373 32.5405C71.4066 32.4691 69.8067 32.0661 68.3335 31.3553L67.4308 34.1421C69.151 34.9113 71.0087 35.3165 72.8895 35.3326C75.4815 35.3326 77.3662 34.9268 78.7599 33.6029C79.1764 33.2168 79.5064 32.7449 79.7277 32.2192C79.9489 31.6934 80.0564 31.1257 80.0427 30.5545C80.0427 28.3497 78.686 27.1058 75.6399 26.4118" fill="white"/>
  <path d="M12.0312 23.8386V21.0839H0V23.8386H4.06495V35.0336H7.96095V23.8386H12.0312Z" fill="white"/>
  <path d="M57.4007 21.0839V29.9459C57.4198 30.3327 57.4039 30.7205 57.3531 31.1044C57.2317 31.9479 56.4188 32.439 55.1307 32.4551C54.1751 32.4551 53.473 32.1508 53.1456 31.6489C52.9411 31.1869 52.8575 30.6796 52.9029 30.1755V21.0998H48.8379V30.7093C48.8379 32.0386 49.0174 32.642 49.6087 33.3786C50.5905 34.6225 52.5016 35.2739 55.1359 35.2739H55.2785C58.8102 35.2739 60.6262 33.8805 61.1541 32.6046C61.4181 31.9693 61.4393 31.6703 61.4393 30.3997V21.0839H57.4007Z" fill="white"/>
  <path d="M127.755 25.9075V22.0236H125.394V25.9075H121.615V28.2132H125.394V32.0972H127.755V28.2132H131.556V25.9075H127.755Z" fill="white"/>
  <path d="M103.001 34.3629C103.398 34.3629 103.791 34.3278 104.181 34.2575C104.57 34.1785 104.924 34.0863 105.244 33.981V36.3248C104.907 36.474 104.47 36.6012 103.934 36.7065C103.398 36.8119 102.841 36.8645 102.262 36.8645C101.45 36.8645 100.72 36.7285 100.071 36.4564C99.4233 36.1755 98.909 35.6971 98.5282 35.0212C98.1484 34.3453 97.958 33.4104 97.958 32.2167V24.3822H96.0008V22.0254H97.958V18.7863H101.017V22.0254H105.127V24.3822H101.017V32.1771C101.017 32.9144 101.198 33.4631 101.562 33.823C101.925 34.1829 102.404 34.3629 103.001 34.3629Z" fill="white"/>
  <path d="M109.14 22.0236L113.422 32.6636L117.899 22.0236H120.848L114.8 36.5983H111.925L106.012 22.0236H109.14Z" fill="white"/>
  <path fill-rule="evenodd" clip-rule="evenodd" d="M134.223 13.5052H92.4449C90.7266 13.5052 89.3338 14.9138 89.3338 16.6514V39.3486C89.3338 41.0862 90.7266 42.4948 92.4449 42.4948H134.223C135.941 42.4948 137.334 41.0862 137.334 39.3486V16.6514C137.334 14.9138 135.941 13.5052 134.223 13.5052ZM92.4449 10.8085C89.2539 10.8085 86.667 13.4244 86.667 16.6514V39.3486C86.667 42.5756 89.2539 45.1915 92.4449 45.1915H134.223C137.414 45.1915 140 42.5756 140 39.3486V16.6514C140 13.4244 137.414 10.8085 134.223 10.8085H92.4449Z" fill="white"/>
</svg>