<svg width="80" height="80" viewBox="0 0 80 80" fill="none" xmlns="http://www.w3.org/2000/svg">
<g clip-path="url(#clip0_42_743)">
<path d="M40 7.5C48.6195 7.5 56.886 10.9241 62.981 17.019C69.0759 23.114 72.5 31.3805 72.5 40C72.5 48.6195 69.0759 56.886 62.981 62.981C56.886 69.0759 48.6195 72.5 40 72.5C31.3805 72.5 23.114 69.0759 17.019 62.981C10.9241 56.886 7.5 48.6195 7.5 40C7.5 31.3805 10.9241 23.114 17.019 17.019C23.114 10.9241 31.3805 7.5 40 7.5ZM40 80C50.6087 80 60.7828 75.7857 68.2843 68.2843C75.7857 60.7828 80 50.6087 80 40C80 29.3913 75.7857 19.2172 68.2843 11.7157C60.7828 4.21427 50.6087 0 40 0C29.3913 0 19.2172 4.21427 11.7157 11.7157C4.21427 19.2172 0 29.3913 0 40C0 50.6087 4.21427 60.7828 11.7157 68.2843C19.2172 75.7857 29.3913 80 40 80ZM57.6562 32.6562C59.125 31.1875 59.125 28.8125 57.6562 27.3594C56.1875 25.9062 53.8125 25.8906 52.3594 27.3594L35.0156 44.7031L27.6719 37.3594C26.2031 35.8906 23.8281 35.8906 22.375 37.3594C20.9219 38.8281 20.9062 41.2031 22.375 42.6562L32.375 52.6562C33.8438 54.125 36.2188 54.125 37.6719 52.6562L57.6562 32.6562Z" fill="#267329"/>
</g>
<g clip-path="url(#clip1_42_743)">
<path d="M40 7.5C48.6195 7.5 56.886 10.9241 62.981 17.019C69.0759 23.114 72.5 31.3805 72.5 40C72.5 48.6195 69.0759 56.886 62.981 62.981C56.886 69.0759 48.6195 72.5 40 72.5C31.3805 72.5 23.114 69.0759 17.019 62.981C10.9241 56.886 7.5 48.6195 7.5 40C7.5 31.3805 10.9241 23.114 17.019 17.019C23.114 10.9241 31.3805 7.5 40 7.5ZM40 80C50.6087 80 60.7828 75.7857 68.2843 68.2843C75.7857 60.7828 80 50.6087 80 40C80 29.3913 75.7857 19.2172 68.2843 11.7157C60.7828 4.21427 50.6087 0 40 0C29.3913 0 19.2172 4.21427 11.7157 11.7157C4.21427 19.2172 0 29.3913 0 40C0 50.6087 4.21427 60.7828 11.7157 68.2843C19.2172 75.7857 29.3913 80 40 80Z" fill="#267329"/>
</g>
<defs>
<clipPath id="clip0_42_743">
<rect width="80" height="80" fill="white"/>
</clipPath>
<clipPath id="clip1_42_743">
<rect width="80" height="80" fill="white"/>
</clipPath>
</defs>
</svg>
