<svg width="384" height="512" viewBox="0 0 384 512" fill="none" xmlns="http://www.w3.org/2000/svg">
<path d="M345.003 136.999C354.403 127.599 354.403 112.399 345.003 103.099C335.603 93.7992 320.403 93.6992 311.103 103.099L192.103 222.099L73.0031 102.999C63.6031 93.5992 48.4031 93.5992 39.1031 102.999C29.8031 112.399 29.7031 127.599 39.1031 136.899L158.103 255.899L39.0031 374.999C29.6031 384.399 29.6031 399.599 39.0031 408.899C48.4031 418.199 63.6031 418.299 72.9031 408.899L191.903 289.899L311.003 408.999C320.403 418.399 335.603 418.399 344.903 408.999C354.203 399.599 354.303 384.399 344.903 375.099L225.903 256.099L345.003 136.999Z" fill="#0D0D0D"/>
</svg>
